<?xml version="1.0" standalone="no"?>
<!DOCTYPE svg PUBLIC "-//W3C//DTD SVG 20010904//EN"
 "http://www.w3.org/TR/2001/REC-SVG-20010904/DTD/svg10.dtd">
<svg version="1.0" xmlns="http://www.w3.org/2000/svg"
 width="512.000000pt" height="512.000000pt" viewBox="0 0 512.000000 512.000000"
 preserveAspectRatio="xMidYMid meet">

<g transform="translate(0.000000,512.000000) scale(0.100000,-0.100000)"
fill="#000000" stroke="none">
<path d="M0 4480 l0 -640 215 0 215 0 0 -1280 0 -1280 -215 0 -215 0 0 -640 0
-640 640 0 640 0 0 215 0 215 1280 0 1280 0 0 -215 0 -215 640 0 640 0 0 640
0 640 -484 0 -485 0 -370 433 -371 432 0 415 0 415 371 433 370 432 485 0 484
0 0 640 0 640 -640 0 -640 0 0 -215 0 -215 -1280 0 -1280 0 0 215 0 215 -640
0 -640 0 0 -640z m850 0 l0 -210 -210 0 -210 0 0 210 0 210 210 0 210 0 0
-210z m3840 0 l0 -210 -210 0 -210 0 0 210 0 210 210 0 210 0 0 -210z m-850
-279 l0 -69 -397 -466 -398 -465 -457 0 -458 -1 0 -640 0 -640 458 -1 457 0
398 -465 397 -466 0 -69 0 -69 -1280 0 -1280 0 0 215 0 215 -215 0 -215 0 0
1280 0 1280 215 0 215 0 0 215 0 215 1280 0 1280 0 0 -69z m-850 -1641 l0
-210 -215 0 -215 0 0 210 0 210 215 0 215 0 0 -210z m-2140 -1920 l0 -210
-210 0 -210 0 0 210 0 210 210 0 210 0 0 -210z m3840 0 l0 -210 -210 0 -210 0
0 210 0 210 210 0 210 0 0 -210z"/>
</g>
</svg>
