<svg height="100" width="100" xmlns="http://www.w3.org/2000/svg"><path d="m80.5 0c-7.145024 0-13.252359 4.2463178-15.976562 10.357422h-36.388672a3.50035 3.50035 0 0 0 -2.667969 1.234375l-24.63476575 29.015625a3.50035 3.50035 0 0 0 2.66992185 5.765625l92.9999999-.064453a3.50035 3.50035 0 0 0 2.666016-5.765625l-7.869141-9.271485c4.079295-3.198433 6.701172-8.16289 6.701172-13.771484 0-9.694595-7.805405-17.5-17.5-17.5zm-3.5 5h7v9h9v7h-9v9h-7v-9h-9v-7h9zm12.910156 46.3125-9.177734.007812 8.210937 9.669922-77.875.052735 8.21875-9.681641-9.1875.007813-9.26757775 10.914062a3.50035 3.50035 0 0 0 2.66992185 5.765625l92.9999999-.064453a3.50035 3.50035 0 0 0 2.666016-5.765625zm0 21.59375-9.177734.007812 8.210937 9.669922-77.875.052735 8.21875-9.681641-9.1875.007813-9.26757775 10.914062a3.50035 3.50035 0 0 0 2.66992185 5.765625l92.9999999-.064453a3.50035 3.50035 0 0 0 2.666016-5.765625z" fill="#000080"/></svg>