<?xml version="1.0" standalone="no"?>
<!DOCTYPE svg PUBLIC "-//W3C//DTD SVG 20010904//EN"
 "http://www.w3.org/TR/2001/REC-SVG-20010904/DTD/svg10.dtd">
<svg version="1.0" xmlns="http://www.w3.org/2000/svg"
 width="512.000000pt" height="512.000000pt" viewBox="0 0 512.000000 512.000000"
 preserveAspectRatio="xMidYMid meet">

<g transform="translate(0.000000,512.000000) scale(0.100000,-0.100000)"
fill="#000000" stroke="none">
<path d="M1428 4322 c-669 -322 -1215 -589 -1213 -592 2 -3 181 -91 398 -196
217 -104 393 -191 392 -194 -2 -3 -182 -91 -399 -195 -218 -105 -396 -192
-396 -195 1 -3 156 -79 345 -169 l344 -165 -99 -37 c-590 -223 -916 -845 -760
-1453 119 -466 505 -817 990 -902 134 -23 350 -15 480 19 180 47 315 111 455
217 l65 49 311 -149 c171 -83 315 -150 320 -150 5 0 184 84 397 186 213 103
437 210 497 239 103 49 1015 488 1388 667 92 45 167 84 167 88 0 5 -17 15 -37
23 -21 8 -135 62 -253 119 -118 58 -279 135 -357 173 -79 38 -143 71 -143 75
0 4 29 20 64 36 170 78 726 349 726 354 0 3 -96 51 -212 107 -458 218 -578
277 -578 283 0 3 178 91 395 195 217 104 395 192 395 195 0 4 -178 91 -395
196 -217 104 -395 192 -395 195 0 3 178 91 395 195 217 104 395 192 395 195 0
9 -2435 1179 -2452 1178 -7 0 -561 -264 -1230 -587z m2121 -166 c479 -231 871
-422 871 -425 0 -3 -396 -196 -879 -428 l-879 -422 -874 420 c-480 231 -876
424 -880 427 -8 8 1741 853 1759 849 6 -1 403 -191 882 -421z m-1534 -1296
l644 -310 43 19 c24 10 315 150 647 310 332 160 609 291 615 291 14 0 456
-213 456 -220 0 -3 -396 -195 -879 -428 l-880 -422 -873 420 c-480 231 -876
424 -880 428 -7 7 425 220 450 221 7 1 302 -138 657 -309z m2180 -577 c124
-59 225 -110 225 -113 0 -3 -395 -196 -878 -428 l-879 -422 -105 49 -105 49
-7 89 c-10 130 -48 293 -91 395 -5 12 41 -6 150 -58 l156 -76 407 195 c224
108 515 248 647 311 131 64 243 116 247 116 4 0 109 -48 233 -107z m-2775 53
c172 -37 332 -127 465 -261 305 -309 349 -802 104 -1163 -94 -137 -275 -282
-427 -341 -227 -87 -500 -80 -718 19 -257 116 -448 348 -520 630 -28 110 -26
335 5 445 63 233 216 436 421 560 92 55 245 110 345 124 85 12 237 6 325 -13z
m2779 -836 c121 -58 221 -108 221 -111 0 -3 -359 -178 -797 -389 -439 -211
-834 -401 -879 -423 l-81 -40 -204 98 c-112 53 -208 101 -212 105 -5 4 2 25
16 47 42 67 93 175 117 248 13 39 24 71 26 73 1 2 58 -25 127 -59 l126 -63
238 114 c131 63 423 203 648 312 226 109 415 197 422 195 6 -1 111 -49 232
-107z"/>
<path d="M1070 1765 l0 -185 -185 0 -186 0 3 -147 3 -148 182 -3 183 -2 2
-183 3 -182 148 -3 147 -3 0 186 0 185 185 0 185 0 0 150 0 150 -185 0 -185 0
0 185 0 185 -150 0 -150 0 0 -185z"/>
</g>
</svg>
